<svg id="SvgjsSvg1046" width="288" height="288" xmlns="http://www.w3.org/2000/svg" version="1.1" xmlns:xlink="http://www.w3.org/1999/xlink" xmlns:svgjs="http://svgjs.com/svgjs"><defs id="SvgjsDefs1047"></defs><g id="SvgjsG1048"><svg xmlns="http://www.w3.org/2000/svg" viewBox="0 0 256 67" width="288" height="288"><path stroke="#ffffff" d="M32.5 0L33 14.5 32 14.5 32.5 0zM127 0L129 .5 129 67 127 66.5 127 0zM37.5 5L38 14.5 37 14.5 37.5 5zM153.5 11L174 11.5 153.5 12 152.5 13 153.5 11zM40.5 14Q45 13 46 15.5L45.5 35 45 15 40.5 15 40.5 14zM169.5 14L170.5 16 169.5 14zM32.5 18L33 38 37 37.5 37 18.5 38 18.5 38 37.5 36.5 39Q32.8 39.8 32 37.5L32.5 18zM219.5 19L221.5 22 219.5 19zM244.5 19L243.5 21 244.5 19zM162.5 20L163 22.5 162 22.5 162.5 20zM169.5 20L170 28.5 169 28.5 169.5 20zM251.5 20L252.5 22 251.5 20zM156.5 21L157 27.5 156 27.5 156.5 21zM211.5 21L212 28.5 211 28.5 211.5 21zM197.5 24L198 31.5 197 31.5 197.5 24zM183.5 25L184 29.5 183 29.5 183.5 25zM242.5 30L243.5 32 242.5 30zM56.5 33L66 33.5 56.5 34 56.5 33zM225.5 33L227.5 36 225.5 33zM178.5 34L179.5 36 178.5 34zM220.5 34L219.5 36 220.5 34zM179.5 37L182 37.5 179.5 38 179.5 37zM211.5 37L214 37.5 211.5 38 211.5 37zM232.5 37L235 37.5 232.5 38 232.5 37zM247.5 37L250 37.5 247.5 38 247.5 37zM48.5 38L53 38.5 48.5 39 48.5 38zM56.5 38L71 38.5 56.5 39 56.5 38zM253.5 40L256 40.5 253.5 41 253.5 40zM224.5 41L232 41.5 224.5 42 224.5 41zM193.5 42L202 42.5 193.5 43 193.5 42zM163.5 43L172 43.5 163.5 44 163.5 43zM.5 46L10 46.5.5 47 .5 46zM21.5 46L32 46.5 21.5 47 21.5 46zM40.5 46L44 46.5 40.5 47 40.5 46zM46.5 46L51 46.5 45.5 48 46.5 46zM62.5 46L67.5 47 68.5 46 81.5 46Q83.8 46.8 83 50.5L82 50.5 81.5 47 68 47 67.5 67 67 47 62.5 47 62.5 46zM85.5 46L89 46.5 85 47 84.5 67 84 47.5 85.5 46zM99.5 46Q103.3 45.3 104 47.5L103.5 67 103 47 99 47 99 58.5 98 58.5 98 47.5 99.5 46zM154.5 50Q157.2 51.3 155 52.5L154.5 54 154 52.5 154.5 50zM169.5 50L168.5 52 169.5 50zM176.5 50L178 53.5 177 53.5 176.5 51 175.5 53 175 51.5 176.5 50zM187.5 50Q190.9 49.1 189 54.5L188 54.5 187.5 50zM205.5 50L204.5 52 205.5 50zM210.5 50L212.5 53 211 52.5 210.5 54 210 52.5 210.5 50zM226.5 50L227 52 225 51.5 226.5 50zM232.5 50L231.5 52 232.5 50zM249.5 50L250 52 248 51.5 249.5 50zM255.5 50L255 51.5 254.5 53 254 51.5 255.5 50z" opacity=".22" class="colorStroke000 svgStroke"></path><path stroke="#ffffff" d="M72.5 51L73 54.5 72 54.5 72.5 51zM32.5 54L31.5 56 32.5 54zM89.5 55L90 66.5 89 66.5 89.5 55zM190.5 55L189.5 57 188 56.5 190.5 55zM224.5 56L227 56.5 224.5 57 224.5 56zM36.5 57L35.5 59 36.5 57zM91.5 57L92.5 59 91.5 57zM55.5 59L56.5 61 55.5 59zM72.5 59L73 62.5 72 62.5 72.5 59zM82.5 63L83 66.5 82 66.5 82.5 63z" opacity=".22" class="colorStroke000 svgStroke"></path><path stroke="#ffffff" d="M 33.5 0 L 69.5 0 L 71 1.5 L 70.5 38 L 70 1 L 33.5 1 L 33.5 0 Z " opacity=".761" class="colorStroke000 svgStroke"></path><path stroke="#ffffff" d="M37.5 4L65.5 4 67 5.5 66.5 34 66 5 37.5 5 37.5 4zM173.5 12L174 16.5 173 16.5 173.5 12zM33.5 14L37 14.5 33.5 15 33.5 14zM180.5 18L181 20 179 19.5 180.5 18zM211.5 19L214 20.5 212.5 21 211.5 19zM174.5 20L173.5 22 174.5 20zM240.5 24L241 26.5 240 26.5 240.5 24zM222.5 25L223 28.5 222 28.5 222.5 25zM171.5 26L172 28.5 171 28.5 171.5 26zM217.5 26L218 28.5 217 28.5 217.5 26zM224.5 26L225 29.5 224 29.5 224.5 26zM187.5 33L185.5 36 187.5 33zM42.5 34L45 34.5 42.5 35 42.5 34zM56.5 34L57 37.5 56 37.5 56.5 34zM197.5 34L199 37 191 36.5 198 35.5 197.5 34zM215.5 34L214.5 36 215.5 34zM237.5 34L238.5 36 237.5 34zM250.5 34L249.5 36 250.5 34zM154.5 35L155.5 36 166 36.5 153.5 37 154.5 35zM240.5 41L248 41.5 240.5 42 240.5 41zM210.5 42L218 42.5 210.5 43 210.5 42zM180.5 43L188 43.5 180.5 44 180.5 43zM153.5 44L160 44.5 153.5 45 153.5 44zM21.5 47L22 66.5 21 66.5 21.5 47zM15.5 49L16.5 51 15.5 49zM160.5 51L162 55.5 160 54.5 160.5 51zM205.5 51L206 54Q203.3 52.9 204 55.5L203 55.5 203.5 52 205 52.5 205.5 51zM223 51Q226.7 49.6 225 55.5L223 54.5 223 52.5 223 51zM229 51L231 51.5 230.5 53 232.5 52 233 54.5 232.5 56 232 54Q229.3 52.9 230 55.5L229 55.5 229 51zM238.5 51L238 52.5 237.5 56 237 52.5 238.5 51zM242 51L244 51.5 243 53.5 243.5 55 242 55 242 51zM246.5 51Q249.9 50.1 248 55.5L246 54.5 247 52.5 246.5 51zM252.5 51L254 53.5 252 52.5 252.5 51zM181.5 53L181 54.5 180.5 56 180 54.5 181.5 53zM157.5 54L156.5 56 157.5 54zM170.5 54L169.5 56 170.5 54zM176 54L178 54.5 176 55.5 176 54zM187.5 55L190 55.5 187.5 56 187.5 55zM26.5 56L30 56.5 26.5 57 26.5 56zM72.5 58L82 58.5 72.5 59 72.5 58zM97.5 58L98.5 60 97.5 58zM6.5 63L10 63.5 6.5 64 6.5 63zM16.5 63L15.5 65 16.5 63z" opacity=".761" class="colorStroke000 svgStroke"></path><path stroke="#ffffff" d="M0 0L32 0 32 15 38 15 38.5 5 39.5 14 40 7 64 7 64 31 57 31.5 64 32.5 56 33 56 39 71 39 71 0 127 0 127 67 104 67 104 46.5 103.5 46 98 46 97.5 57Q94.8 55.8 97 54.5L96.5 47 95 52.5 95.5 54 89.5 46Q84.1 45.4 84 46.5L84 66.5 83 66.5 83 63 73 63 73 59 83 59 83 54 73.5 54 73 51 83 51 83 46 61.5 46 61 47.5 56.5 60 51 46 39 46 39 66.5 37 65.5 34 60.5Q39.5 59 38 50.5L32.5 46 21 46 21 52.5 20 53.5Q22.3 54.8 21 59.5L21 61.5Q23.5 69.8 16 67L20 56.5 15.5 47 13.5 47 0 45.5 9 44.5 0 44 0 0zM31 1L30 14 31 14 31 1zM42 12L42 13 45 13 42 12zM40 14L40 35 41 35 46 35 46 15 46 14 40 14zM32 17L32 39 33 39 38 39 38 18 38 17 32 17zM48 17L48 39Q48 40 53 39L54 38 54 19Q53 16 48 17zM31 18L30 38 31 38 31 18zM40 35L39 38 40 38 40 35zM47 35L46 38 47 38 47 35zM34 40L34 41 37 41 34 40zM50 40L50 41 53 41 50 40zM58 40L58 41 71 41 58 40zM23 44L23 45 31 45 23 44zM41 44L41 45 44 45 41 44zM47 44L47 45 50 45 47 44zM63 44L63 45 66 45 63 44zM69 44L69 45 82 45 69 44zM86 44L86 45 89 45 86 44zM100 44L100 45 103 45 100 44zM75 52L75 53 83 53 75 52zM56 54Q54 57 57 56L56 54zM75 60L74 62 83 62 83 61 82 61Q76 63 75 60zM129 0L255.5 0 256 .5 256 20.5 255 20.5 253.5 18Q244.5 16.5 242 21.5 240.8 27.8 244.5 29L248 30.5 245 31 245.5 33 247.5 32 247.5 33 246 33.5 249 34 249.5 31 250 35Q245.3 36 244 32.5L243.5 29 241 30Q242.7 34.1 238.5 33L234.5 34 231 31.5 230 27.5 231.5 28 241 28 241 22.5 238.5 18 236.5 18 229.5 18 224 23.5Q222.2 34.3 228.5 37L235.5 38 240.5 35Q243.1 38.9 250.5 38L255.5 35 256 40 247.5 40 246.5 41 158.5 43 152 44 152.5 46 255.5 46 256 50 252 50 252 57 255.5 56 256 67 129 67 129 0zM154 9L154 10 173 10 154 9zM152 11L152 13 156 16 156 34 155 35Q151 34 152 37L167 37 167 35 163 34 164 26 164 34 166 34 165 29 166 26Q168 25 167 29L170 29 170 20 169 19 166 23 166 22 165 16 169 16 165 15 169 14 173 21 171 24Q170 30 172 34L178 38Q184 39 187 36L190 31 190 25 188 20Q186 21 185 18 176 16 175 20L175 19 174 15 174 11 152 11zM208 11L207 12Q201 10 203 16L200 17 204 17 205 14 205 18Q200 17 199 20L198 18 194 19Q188 17 189 22L191 21 192 28 191 35 190 34 189 34 190 37 201 37Q202 34 198 35L199 24 199 27 200 27Q199 22 204 24L205 20 206 20 205 22 205 37 210 38Q217 39 220 36L223 32Q224 25 222 22 220 18 214 18L218 17 214 16 214 12 213 19 212 19 212 11 208 11zM155 15L154 33 155 33 155 15zM178 16L178 17 184 17 178 16zM231 16L231 17 236 17 231 16zM247 16L247 17 253 17 247 16zM191 17L191 18 193 18 191 17zM200 29L199 34 200 34 200 29zM235 32L235 33 238 33 235 32zM230 38L229 40 242 40 239 39 237 39Q231 41 230 38zM198 40L198 41 213 41 198 40zM168 41L168 42 185 42 168 41zM155 48L155 49 157 49 155 48zM168 48L168 49 170 49 168 48zM175 48L175 49 177 49 175 48zM197 48L197 49 199 49 197 48zM204 48L204 49 206 49 204 48zM218 48L218 49 220 49 218 48zM231 48L231 49 233 49 231 48zM237 48L237 49 240 49 237 48zM153 50L152 53 153 56 157 57 158 53Q155 52 156 55L155 55Q154 50 158 52L158 50 153 50zM160 50L160 57 164 57 164 51 163 55 162 55Q164 49 160 50zM167 50Q164 51 165 55 166 58 170 57L172 53Q171 49 167 50zM173 50L173 57 177 57Q179 56 178 52 177 49 173 50zM181 50L179 57 181 57Q180 54 183 55L182 57 185 57 184 53Q185 48 181 50zM188 50Q185 51 187 53L186 56Q187 58 191 57L191 51 190 55 189 55Q191 49 188 50zM195 50L195 56 198 57 201 52Q200 49 195 50zM202 50L202 57 204 57 205 55 205 57 208 57 207 55 207 53 207 50 202 50zM211 50L208 53 209 56 213 57Q216 56 215 52 214 49 211 50zM216 50L216 56 219 57 222 52Q221 49 216 50zM223 50L223 57Q227 58 228 56L227 54Q229 48 223 50zM229 50L229 57Q232 58 231 56L232 56Q231 58 234 57L233 55 234 53 234 50 229 50zM235 50L236 56 236 53 237 53Q235 58 239 57L240 52 240 56 241 56 241 50 235 50zM242 50L242 57 244 57 244 51 242 50zM246 50L246 57 250 57 250 50 246 50zM201 54L199 56 201 56 201 54zM222 54L220 56 222 56 222 54z" opacity="0" class="colorStroke000 svgStroke"></path><path stroke="#ffffff" d="M40.5 5L64 5.5 40.5 6 40.5 5zM65.5 5L66 32.5 65 32.5 65.5 5zM163.5 14L164 22.5 163 22.5 163.5 14zM179 20L182 21.5Q184.5 25 183 32.5L181.5 35 179.5 31 179 33.5 179.5 35 178 33.5 178 22.5 179 20zM182 23L181 33 182 33 182 23zM232.5 20Q235.1 19.2 234 22.5L235 25Q229.4 27.2 231 21.5L232.5 20zM233 21L232 24 234 24 233 21zM249.5 20L253 22.5Q251.9 25.8 254.5 25L256 24.5 255.5 28 250 24.5 252 24 251.5 22 250 22.5 250.5 21Q247.9 20.2 249 23.5L248 23.5 249.5 20zM212 21L216 23.5 217 28.5 214.5 35 214 33.5 215 31.5Q212.5 30 214 24.5 216.3 23.3 213.5 22L212.5 35 212 21zM45.5 48L52 67 47 67 47 58.5 47 56.5 46.5 54 45.5 67 45.5 48zM66.5 49L67 66.5 66 66.5 65.5 54 64 57.5 65 58.5 65 67 60 67 60 65.5 66.5 49zM5.5 51L6 62.5 5 62.5 5.5 51zM7 51L13 53.5 14 58.5 11.5 62 7.5 63 7.5 62 9 61.5 7 61 7 51zM26.5 51L27 55.5 26 55.5 26.5 51zM28.5 51Q34.2 49.4 32 55 26.8 56.7 28 53L31 52.5Q27.7 52.6 28.5 51zM168.5 52L169 54.5 168 54.5 168.5 52zM211.5 52L212 54.5 211 54.5 211.5 52zM90.5 56L98 66.5 95.5 67 90 67 90.5 56zM26 60L29 61.5 32 66.5 28 67 29 63.5 27.5 61 26.5 67 26 60z" opacity="0" class="colorStroke000 svgStroke"></path><path stroke="#ffffff" d="M34.5 1L37 2.5 35 3.5 36 4.5 36 12 34 11.5 34 3.5 34.5 1zM68.5 1L68.5 4Q65.5 2.5 68.5 1zM171.5 12L170.5 14 169 13.5 171.5 12zM157.5 13L161 13.5 158.5 15 157.5 13zM44.5 15L43.5 17 44.5 15zM160.5 15L161 23.5 160 23.5 160.5 15zM208.5 15L210 18.5 209 20.5 210 21.5 210 29.5 209 32.5 208.5 34 208.5 15zM158.5 18L159 30.5 158 30.5 158.5 18zM183.5 19L184.5 21 183.5 19zM217.5 19L219.5 24 221 23.5 220 25.5 221 28.5 221 30.5 218.5 33 218 31.5Q220.5 30 219 24.5 216 22.7 217.5 19zM230.5 19L229.5 21 230.5 19zM200.5 20L201.5 22Q198.7 22.7 200.5 20zM34 21L36 21.5 36 38 34 37.5 34 21zM194 21L197 22.5 196 23.5 196 32.5 193.5 36 194 34.5 194 21zM236.5 21L238.5 24Q236.3 24.8 237 22.5L236.5 21zM185.5 22L187.5 26 189 25.5 187 33 185 32.5 186 30.5 185 26.5 186 24.5 185.5 22zM227 22L229 22.5 227.5 26Q224.8 24.8 227 23.5L227 22zM245.5 22L246 25 244 24.5 245.5 22zM174.5 23L176 23.5 175 24.5 175 33.5 178 34.5Q176 38 174 33.5L173 26.5 174.5 23zM247.5 24L248 26Q250.7 24.9 250 27.5L254 27.5 253 31.5 253.5 33 252 30.5Q254.3 29.3 251.5 28L250.5 30 247 25.5 247.5 24zM160.5 25L161 30.5 160 30.5 160.5 25zM243.5 26L247 27.5 246.5 29 246 27Q242.7 27.8 243.5 26zM226 27Q229 25.8 228 29.5L230.5 33Q232.8 32.3 232 34.5L232.5 36 230.5 36 228 33.5Q230.3 32.3 227.5 31L225.5 32 227 29.5 226 28.5 226 27zM43.5 32L44.5 34 43.5 32zM158.5 33L162 34.5 161.5 36 160.5 34 158 34.5 157.5 36 156.5 34 158.5 33zM58.5 34L59.5 35 67.5 35 69 34.5 68.5 38 67.5 37 59.5 37 58 37.5 59 35.5 58.5 34zM235.5 43L242 43.5 235.5 44 235.5 43zM23.5 47L26 48.5 23.5 50 23.5 47zM69.5 47L72 48.5 71 49.5 71 67 69 66.5 69 49.5 69.5 47zM85.5 47L88 47.5 88.5 53 89.5 49 93 56Q95.7 54.9 95 57.5L96 60 99 61.5Q96.8 62.8 99.5 64L100.5 60 101 66Q98.3 67.1 99 64.5L90.5 53Q88.3 52.3 89 54.5L88 55.5 87.5 67 87 55.5 88 53.5 86.5 49 85.5 67 85.5 47zM100.5 47Q103.3 48.2 101 49.5L100.5 59 100 49.5 100.5 47zM.5 48L4 48.5.5 49 .5 48zM31.5 48Q34.8 46.9 34 49.5L35.5 52 31.5 48zM13.5 49L17 53.5 15 54 13.5 51 12 50.5 13.5 49zM62.5 49Q64.8 48.3 64 50.5L61 52.5Q64.1 50.8 62.5 49zM34.5 55L36 55.5 34 56 31.5 60 28 58.5 34.5 55zM23.5 56L24 59.5 23 59.5 23.5 56zM72.5 56L79.5 56 80 57.5 78.5 57 72.5 57 72.5 56zM15 60L17 60.5 14 65 11.5 66 10.5 65 8 66.5Q7.3 64.3 9.5 65L12 64.5 13.5 61 15 61.5 15 60zM53.5 62L55 66 57 65.5 56 63 59 63.5 56.5 67 54 65.5 53.5 62zM32.5 63L35.5 67Q33.3 67.8 34 65.5L32.5 63z" opacity=".992" class="colorStroke000 svgStroke"></path><path stroke="#ffffff" d="M30.5 1L31 13.5 30 13.5 30.5 1zM39.5 5L40.5 6 63.5 6 65 5.5 64.5 33 57 31.5 64 31 64 7 40 7 39.5 14 39.5 5zM153.5 9L173 9.5 153.5 10 153.5 9z" opacity=".02" class="colorStroke000 svgStroke"></path><path stroke="#ffffff" d="M41.5 12L45 12.5 41.5 13 41.5 12zM213.5 12L214 16 218 16.5 213.5 18 213.5 12zM155.5 14L155 15.5 155 32.5 153.5 34 154 32.5 154 15.5 155.5 14zM164.5 14L170 16.5 168.5 16Q162.8 14.2 165 20.5L166.5 23 164 22.5 164.5 14zM203.5 14L204 17 199.5 18 200.5 16Q204 17 203.5 14zM38.5 15L39 16.5Q37.8 19.3 32.5 18L32.5 17Q38.9 19 38.5 15zM174.5 15L175 18.5 173.5 21 172 20.5 171.5 22 171 20.5 174 19 174.5 15zM177.5 16L184 16.5 177.5 17 177.5 16zM205.5 16L206 18.5 205 18.5 205.5 16zM230.5 16L236 16.5 230.5 17 230.5 16zM246.5 16L253 16.5 246.5 17 246.5 16zM48.5 17Q53 16 54 18.5L53.5 38 53 18 48.5 18 48.5 17z" opacity=".02" class="colorStroke000 svgStroke"></path><path stroke="#ffffff" d="M171.5 17L169.5 20 167.5 21 168.5 19 171.5 17zM185.5 17L188 20.5 187 20.5 185.5 18 184 18.5 185.5 17zM190.5 17L193 17.5 190.5 18 190.5 17zM219.5 17L220.5 19 219.5 17zM228.5 17L229.5 19 227 18.5 228.5 17zM237.5 17L239 19.5 238 19.5 237.5 18 236 18.5 237.5 17zM30.5 18L31 37.5 30 37.5 30.5 18zM181.5 20L180 22.5 179.5 24 178 21.5Q179.8 23.1 181.5 20zM248.5 20L252 22.5Q252.8 24.8 250.5 24L249 24.5 248.5 20zM205.5 21L206 36.5 205 36.5 205.5 21zM214.5 21Q217.8 22.8 214 24.5L215 32.5 213.5 35 213 22.5 214.5 21zM232.5 21L233.5 23 235 22.5 232 24 232.5 21zM255.5 21L256 23.5 253.5 25 253.5 24Q256.4 24.8 255.5 21zM182.5 22L182 23.5 182 32.5 183 33.5 181 33.5 180.5 36 179 31.5 180 31.5 180.5 33 181 23.5 182.5 22zM223.5 22L224.5 24 223.5 22zM198.5 23L201 23.5 199.5 27 198.5 23zM191.5 24L192 26.5 191 26.5 191.5 24zM163.5 25Q167.8 26.8 165 28.5L166 33.5 164 34Q164.7 27.1 163.5 25zM177.5 25L178 30.5 177 30.5 177.5 25zM231.5 27L241 27.5 231.5 28 231.5 27zM242.5 28L244 30.5 243 30.5 242.5 28zM191.5 29L192 32.5 191 32.5 191.5 29zM199.5 29L200 33.5 199 33.5 199.5 29zM241.5 30L242 35.5 241 35.5 241.5 30zM248.5 30L249 34 245 32.5Q244.2 29.9 247.5 31L248.5 30zM222.5 31L227.5 37 229 36.5 227.5 38 223 33.5 222.5 31zM234.5 32Q238.3 31.3 239 33.5L237.5 33 233.5 34 234.5 32zM187.5 34L187.5 37Q184.5 35.5 187.5 34zM39.5 35L40 37.5 39 37.5 39.5 35zM46.5 35L47 37.5 46 37.5 46.5 35zM173.5 36L176.5 38 178.5 37 178.5 38 175.5 39 173.5 36zM214.5 37L218 38.5 216.5 39 214.5 37zM229.5 38Q231 40.5 236.5 39L238.5 39 243.5 38 243.5 39 241.5 40 228.5 40 229.5 38zM213.5 39L212.5 41 197 40.5 212.5 40 213.5 39zM33.5 40L37 40.5 33.5 41 33.5 40zM49.5 40L53 40.5 49.5 41 49.5 40zM57.5 40L71 40.5 57.5 41 57.5 40zM247.5 40L253 40.5 247.5 41 247.5 40zM167.5 41L185 41.5 167.5 42 167.5 41zM216.5 41L224 41.5 216.5 42 216.5 41zM187.5 42L193 42.5 187.5 43 187.5 42zM158.5 43L163 43.5 158.5 44 158.5 43zM.5 44L9 44.5.5 45 .5 44zM22.5 44L31 44.5 22.5 45 22.5 44zM40.5 44L44 44.5 40.5 45 40.5 44zM46.5 44L50 44.5 46.5 45 46.5 44zM62.5 44L66 44.5 62.5 45 62.5 44zM68.5 44L82 44.5 68.5 45 68.5 44zM85.5 44L89 44.5 85.5 45 85.5 44zM99.5 44L103 44.5 99.5 45 99.5 44zM34.5 45L35.5 47 34.5 45zM155.5 45L256 45.5 155.5 46 155.5 45zM14.5 46L18 50.5 15 48.5 14.5 46zM39.5 46L40 66.5 39 66.5 39.5 46zM89.5 46L90.5 48 89.5 46zM59.5 47L60.5 49 59.5 47zM96.5 47L97 55 95 54.5 96 51.5 96.5 47zM92.5 48Q95.5 49.5 92.5 51L92.5 48zM154.5 48L157 48.5 154.5 49 154.5 48zM167.5 48L170 48.5 167.5 49 167.5 48zM174.5 48L177 48.5 174.5 49 174.5 48zM196.5 48L199 48.5 196.5 49 196.5 48zM203.5 48L206 48.5 203.5 49 203.5 48zM217.5 48L220 48.5 217.5 49 217.5 48zM230.5 48L233 48.5 230.5 49 230.5 48zM236.5 48L240 48.5 236.5 49 236.5 48zM58.5 49L60 51.5 58 50.5 58.5 49zM166.5 50L165.5 52 166.5 50zM195.5 50L196 56 198 56.5 196.5 57Q193.4 55.4 195.5 50zM213.5 50L214.5 52 213.5 50zM216.5 50L217 56 219 56.5 217.5 57Q214.4 55.4 216.5 50zM240.5 50L241 55.5 240 55.5 240.5 50zM6.5 51L7 61 9 61.5 6.5 63 6.5 51zM19.5 51L18.5 53 19.5 51zM27.5 51L31 52.5 28 53Q26.8 56 30.5 55L30.5 56Q24.2 57.7 27.5 51zM163.5 51L164 54.5 163 54.5 163.5 51zM190.5 51L191 54.5 190 54.5 190.5 51zM54.5 52L53.5 54 54.5 52zM74.5 52L83 52.5 74.5 53 74.5 52zM235.5 52L236 55.5 235 55.5 235.5 52zM47.5 53L47 54.5 48 57.5 47 58.5 46.5 67 46 54.5 47.5 53zM186.5 53L188 56.5 186 55.5 186.5 53zM55.5 54L56.5 56 54.5 57 55 55.5 55.5 54zM65.5 54L66 66.5 65 66.5Q67 58.5 63 56.5L65 56.5 65.5 54zM73.5 54L83 54 83 58.5 82 58.5 82 55 73.5 55 73.5 54zM198.5 54L201 54.5Q201.8 56.8 199.5 56L198.5 54zM219.5 54L222 54.5Q222.8 56.8 220.5 56L219.5 54zM226.5 54Q228.8 53.3 228 55.5L226.5 54zM182.5 56L185 56.5 182.5 57 182.5 56zM205.5 56L208 56.5 205.5 57 205.5 56zM212.5 56L213.5 58 212.5 56zM49.5 58L49 59.5 48.5 61 48 59.5 49.5 58zM34.5 59L38 63.5 37 63.5 36.5 62 35 62.5 36 61.5 34.5 59zM91.5 59L92.5 61 94 60.5 93.5 63Q89.9 61.9 91.5 59zM28.5 60L28 61.5 28.5 63 30 62.5 27.5 67 27 61.5 28.5 60zM74.5 60Q76 62.5 81.5 61L83 60.5 82.5 62 74 62 74.5 60zM50.5 61L49.5 63 50.5 61zM16.5 64L16 65.5 15.5 67 15 65.5 16.5 64zM60.5 64L61.5 66 60.5 64zM95.5 65L96.5 67 95.5 65z" opacity=".02" class="colorStroke000 svgStroke"></path><path stroke="#ffffff" d="M209.5 11L212 11.5 212 18.5 211 18.5Q212.5 11.5 209.5 12L209.5 11zM163.5 13L168 13.5 163 14 162.5 20 162 14.5 163.5 13zM40.5 15L41 33.5 40 33.5 40.5 15zM156.5 16L157 20.5 156 20.5 156.5 16zM48.5 18L49 37.5 48 37.5 48.5 18zM196.5 18Q198.3 21.1 200 19.5L197 21.5 196.5 18zM201.5 18L205 19.5 203.5 19Q200.5 19.5 201.5 18zM231.5 18L235 18.5 231.5 19 231.5 18zM185.5 19L187.5 22 185.5 19zM237.5 19L239.5 22 237.5 19zM227.5 20L226.5 22 227.5 20zM203.5 22L202.5 24 203.5 22zM163.5 23L166 23.5 163.5 24 163.5 23zM247.5 23L248.5 25 247.5 23zM166.5 25L167.5 27 166.5 25zM231.5 25L235 25.5 231.5 26 231.5 25zM162.5 27L163 32.5 162 32.5 162.5 27zM156.5 28L157 31.5 156 31.5 156.5 28zM211.5 29L212 34.5 211 34.5 211.5 29zM249.5 30L250.5 32 249.5 30zM231.5 32L232.5 34 231.5 32zM173.5 34L174.5 36 173.5 34zM182.5 34L181.5 36 182.5 34zM191.5 34L189.5 37 191.5 34zM199.5 35L200.5 37 199.5 35zM232.5 41L240 41.5 232.5 42 232.5 41zM202.5 42L210 42.5 202.5 43 202.5 42zM172.5 43L180 43.5 172.5 44 172.5 43zM44.5 47L45 66.5 44 66.5 44.5 47zM35.5 48L36.5 50 35.5 48zM5.5 50L8 50.5 5 51 5 62.5 6 63.5 4 62.5 4 51.5 5.5 50zM26.5 50L31 50.5 26 51 25.5 56 25 51.5 26.5 50zM73.5 50L82 50.5 73.5 51 73.5 50zM155.5 50L158 51.5 156.5 52 155.5 50zM167 50L169 50.5 167 51.5 167 50zM174.5 50L176 50.5 174 51 173.5 56 173 51.5 174.5 50zM196.5 50Q200.3 49 199 52L196.5 50zM203.5 50L205 50.5 203 51 202.5 56 202 51.5 203.5 50zM217.5 50Q221.3 49 220 52L217.5 50zM236 50L240 50 240 51.5 238.5 56 238 52.5 238.5 51 236.5 52 236 50zM253 50L256 51.5 253 51.5 253 50zM37.5 51L38 54.5 37 54.5 37.5 51zM161.5 51L162 55 164 55.5 162.5 56 160 55.5 161.5 51zM170.5 51L169.5 53 170.5 51zM233.5 51L234 52.5 230 55.5Q229.3 53.3 231.5 54L233.5 51zM181.5 52Q184.1 51.2 183 54.5L185 54.5Q183.7 57.2 182.5 55L180 53.5 181.5 52zM157.5 53L157.5 56 154 54.5Q155.8 56.1 157.5 53zM89.5 54L90.5 56 89.5 54zM169.5 54L168.5 56 169.5 54zM13.5 60L11.5 63 13.5 60zM25.5 60L26 66.5 25 66.5 25.5 60zM55.5 60L56.5 62 55.5 60zM73.5 63L82 63.5 73.5 64 73.5 63zM97.5 65L98.5 67 97.5 65z" opacity=".506" class="colorStroke000 svgStroke"></path><path stroke="#ffffff" d="M33.5 1L34 13.5 33 13.5 33.5 1zM35.5 1L68 1.5 35.5 2 35.5 1zM69.5 1L70 37.5 69 37.5 69.5 1zM35.5 3L68 3 68 35 59 34.5 67 34 67 4 37 4 36.5 14 36 4.5 35.5 3zM155.5 12L171 12.5 162 13 162 24 165.5 24 165.5 25 162 25 162 33.5 161 33.5 160.5 25 159.5 34 159 14.5 160 14.5 160.5 24 161 13 157 13.5 158 14.5 158 33.5 157 33.5 157 14.5 155.5 12zM172.5 12L173 16.5 172 16.5 171 14.5 172.5 12zM208.5 12L209 14.5 208 15.5 207.5 36 207 15.5 206 13.5 207 13.5 207.5 15 208.5 12zM210.5 12L211 35.5 210 35.5 210 21.5 209 20.5 210.5 12z" class="colorStroke000 svgStroke"></path><path stroke="#ffffff" d="M41.5 15L42 33.5 41 33.5 41.5 15zM43.5 17L44 31.5 43 31.5 43.5 17zM33.5 19L34 37.5 33 37.5 33.5 19zM36.5 19L37 37.5 36 37.5 36.5 19zM49.5 19L50 37.5 49 37.5 49.5 19zM51.5 19L52 37.5 51 37.5 51.5 19zM177 19L179 19.5Q174.9 22.4 176 30.5L177 33.5 176 33.5 175 24.5 176 21.5 174 22.5 173 30.5 175 34.5 173 33.5 172 24.5 175.5 20 177 20.5 177 19zM182.5 19L185 22.5 185.5 34Q188.5 32 188 26.5L185 20.5 187 21.5 189 29.5 184.5 36Q182.3 36.8 183 34.5L184 33.5 184 22.5 182.5 19zM196.5 19L197 21.5 197 23.5 197 34.5 198 35.5 195.5 36 194 35.5 196 35 196 23.5 195 22.5 196.5 19zM215 19L217 19.5Q214.5 21 218 22.5L218.5 24 220 22.5 218.5 20Q223.8 21.8 222 30.5L217.5 36 215 35.5Q218.9 32.9 218 25.5L215 19zM221 23L219 25Q221 30 218 32L219 34 221 31 221 23zM231.5 19L230 21.5 229 29.5 231 32.5Q227.9 34.3 229.5 36 223.7 33.9 225 24.5L228.5 20Q230 22.5 231.5 19zM229 21L226 25Q224 31 228 31L229 32 227 27 229 23 229 21zM234.5 19Q237.1 18.2 236 21.5L237 25.5 236 25.5 234.5 19zM247.5 19L247 20.5 247.5 26 249 25.5 244.5 28 244.5 27 246 26.5 246 24.5 245.5 21 243.5 26 243 22.5 247.5 19zM253.5 19L254 21.5 253 21.5 253.5 19zM192 20L195 20.5 193 21.5 194 22.5 194 33.5 192.5 36 192 34.5 193 33.5 193 23.5 192 20zM237.5 20L240 25.5 239 25.5 237.5 20zM168.5 21L169 27.5 168 27.5 167 25.5 168 22.5 168.5 21zM252.5 27L253.5 30 254.5 28 255 33.5 252.5 36 250 35.5 252 32.5 251 28.5 252.5 27zM247.5 28L250 29.5 248.5 29 247.5 28zM243.5 33L244 35.5 243 35.5 243.5 33zM57.5 34L58 37.5 57 37.5 57.5 34zM232.5 34L236 35.5 233.5 36 231 35.5 232.5 34zM158.5 35L161 35.5 158.5 36 158.5 35zM59.5 37L68 37.5 59.5 38 59.5 37zM224.5 42L255.5 42 256 44 235.5 43 234.5 44 195.5 44 195.5 43 223.5 43 224.5 42zM169.5 44L188 44.5 169.5 45 169.5 44zM.5 47L9 47.5.5 48 .5 47zM22.5 47L23 66.5 22 66.5 22.5 47zM24.5 47L32 47.5 24.5 48 24.5 47zM41.5 47L42 66.5 41 66.5 41.5 47zM43.5 47L44 66.5 43 66.5 43.5 47zM46.5 47L53.5 63 54 60.5 49 47.5 50 47.5 55 62.5 57.5 66 60 58.5 59 58.5 57.5 63 57 60.5 62.5 47 63 48.5 60 57.5 61 57.5 65.5 47 65 48.5 60 63.5 57.5 67 55.5 66Q54.3 68.3 53 65.5L46.5 47zM55 63L54 66 55 66 55 63zM68.5 47L69 66.5 68 66.5 68.5 47zM71.5 47L79 47.5 71.5 48 71.5 47zM81.5 47L82 49.5 81 49.5 81.5 47zM88.5 47L97 59.5 97 61.5 97.5 63 98.5 60 100 59.5 99 58.5 99 47.5 100 47.5 100.5 59 101.5 49 102 66.5 101 66.5 100.5 60 99 65.5 99.5 67 90 53.5 92 53.5 89.5 49 88 54.5 89 55.5 89 66.5 88 66.5 87.5 55 86.5 67 86 49.5 87 49.5 87.5 53 89 48.5 88.5 47zM93 54L94 59 96 60 93 54zM10.5 48L12 50.5 10.5 50 4 50 4 64Q9.4 62.5 11 65.5L9.5 65 4 65.5 8 66.5 0 67 0 49 9.5 49 10.5 48zM3 50L2 64 3 64 3 50zM34.5 48Q37.8 49.7 37 55.5L33 60.5 37 66.5 34 65.5 33.5 67 29 59.5 31 60.5 33.5 65 34 63.5 32 59.5Q37 58.5 36 51.5L34.5 48zM14.5 49Q19.5 51.5 18 60.5L14.5 65 16 62.5 17 53.5 14.5 49z" class="colorStroke000 svgStroke"></path><path stroke="#ffffff" d="M24 49Q32.8 47 35 52.5 35.5 56.5 32.5 57L34 54.5Q34.5 50.5 31.5 50L25 50 25 57 31 57.5 25 59 24.5 67 24 49zM71 49L79 49.5 72 50 72 57 78.5 57 78.5 58 72 58 72 64 79 64.5 72 65.5 79 66.5 71 67 71 49zM13.5 51Q17 53 16 59.5L14.5 62 14 60.5Q16.3 59.3 15 54.5L13.5 51zM81.5 64L82 66.5 81 66.5 81.5 64z" class="colorStroke000 svgStroke"></path><path stroke="#ffffff" d="M37.5 2L67 2.5 37.5 3 37.5 2zM68.5 4L69 33.5 68 33.5 68.5 4zM209.5 12L210 15.5 209 15.5 209.5 12zM207.5 14L206.5 16 207.5 14zM42.5 15L43 33.5 42 33.5 42.5 15zM158.5 15L159 17.5 158 17.5 158.5 15zM44.5 16L45 32.5 44 32.5 44.5 16zM50.5 19L51 37.5 50 37.5 50.5 19zM200.5 19L203 19.5Q203.8 21.8 201.5 21L200.5 19zM219.5 20Q222.5 21.5 219.5 23 216.5 21.5 219.5 20zM236.5 20L237.5 22 236.5 20zM244.5 20Q247.3 21.3 245 22.5L244.5 24 244 22.5 244.5 20zM175.5 21L176 23 174 22.5 175.5 21zM187.5 22L186 24.5 185.5 26 185 24.5 187.5 22zM251.5 26L250.5 28 251.5 26zM175.5 32L177 34.5 175 35.5 175 33.5 175.5 32zM209.5 32L210 35 208 34.5 209.5 32zM219.5 32L217.5 35 216.5 33Q218 35.5 219.5 32zM251.5 32L252.5 34 254 33.5Q252.5 36.5 251 33.5L251.5 32zM185.5 33L184.5 35 185.5 33zM192.5 33L193.5 35 192.5 33zM162.5 34L163.5 36 162.5 34zM211.5 36L214 36.5 211.5 37 211.5 36zM232.5 36L235 36.5 232.5 37 232.5 36zM252.5 41L255 41.5 252.5 42 252.5 41zM193.5 43L203 44.5 190.5 45 190.5 44 193.5 43zM215.5 44L256 44.5 215.5 45 215.5 44zM42.5 47L43 66.5 42 66.5 42.5 47zM64.5 47L63.5 49 64.5 47zM102.5 47L103 66.5 102 66.5 102.5 47zM4.5 48L9 48.5 4.5 49 4.5 48zM26.5 48L31 48.5 26.5 49 26.5 48zM48.5 48L51 48.5 47.5 51 48 49.5 48.5 48zM72.5 48L81 48.5 72.5 49 72.5 48zM14.5 50L15.5 52 14.5 50zM23.5 50L24 55.5 23 55.5 23.5 50zM2.5 51L3 62.5 2 62.5 2.5 51zM12.5 51L13.5 53 12.5 51zM49.5 51L52 56.5 51 56.5 49.5 51zM35.5 52L36 54.5 35 54.5 35.5 52zM62.5 52L63.5 54 62 53.5 61.5 55 61 53.5 62.5 52zM16.5 54L17 59.5 16 59.5 16.5 54zM72.5 55L81 55.5 72.5 56 72.5 55zM34.5 56L35.5 58 34.5 56zM60.5 56L61 57.5 58.5 63 58 61.5 60.5 56zM52.5 58L53.5 60 55 59.5 53.5 62 52.5 58zM23.5 60L24 66.5 23 66.5 23.5 60zM15.5 62L14.5 64 15.5 62zM32.5 62L33.5 64 32.5 62zM10.5 63L11.5 65 10.5 63zM5.5 65L8 65.5 5.5 66 5.5 65zM73.5 65L81 65.5 73.5 66 73.5 65z" opacity=".98" class="colorStroke000 svgStroke"></path><path stroke="#ffffff" d="M170.5 14L171.5 16 170.5 14zM206.5 16L207 35.5 206 35.5 206.5 16zM172.5 17Q174.8 16.3 174 18.5L172.5 17zM33.5 18L37 18.5 33.5 19 33.5 18zM49.5 18L53 19.5 52.5 38 52 19Q48.7 19.8 49.5 18zM181.5 19L182.5 21 181.5 19zM192.5 23L193 26.5 192 26.5 192.5 23zM229.5 24L230 26 235.5 25 240 26.5 230.5 27 229.5 24zM176.5 25L177 30.5 176 30.5 176.5 25zM192.5 29L193 32.5 192 32.5 192.5 29zM242.5 33L243 35.5 242 35.5 242.5 33zM191.5 35L190.5 37 191.5 35zM248.5 41L252 41.5 248.5 42 248.5 41zM218.5 42L222 42.5 218.5 43 218.5 42zM188.5 43L193 43.5 188.5 44 188.5 43zM160.5 44L166 44.5 160.5 45 160.5 44zM203.5 44L215 44.5 203.5 45 203.5 44zM40.5 47L41 66.5 40 66.5 40.5 47zM187.5 51L188 54.5 187 54.5 187.5 51zM196.5 51L197 54.5 196 54.5 196.5 51zM217.5 51L218 54.5 217 54.5 217.5 51zM153.5 52L155 55.5 153 54.5 153.5 52zM209.5 52L211 55.5 209 54.5 209.5 52zM89.5 53L90.5 55 89.5 53zM81.5 55L82 57.5 81 57.5 81.5 55zM28.5 59L29.5 61 28.5 59z" opacity=".922" class="colorStroke000 svgStroke"></path></svg></g></svg>